<svg width="75" height="75" viewBox="0 0 75 75" fill="none" xmlns="http://www.w3.org/2000/svg">
<g clip-path="url(#clip0_5_57)">
<path d="M75 34.8214C75 54.0569 58.2139 69.6429 37.5022 69.6429C32.0679 69.6429 26.912 68.5714 22.254 66.6462C20.511 68.1027 17.6693 70.0949 14.3004 71.769C10.785 73.51 6.55182 75 2.34796 75C1.39586 75 0.546305 74.3471 0.180115 73.3426C-0.186075 72.3382 0.0189913 71.1998 0.678133 70.4297L0.722076 70.3795C0.766018 70.3292 0.824609 70.2623 0.912494 70.1451C1.07362 69.9442 1.32263 69.6261 1.63023 69.1908C2.23078 68.3538 3.03639 67.115 3.85666 65.5748C5.32142 62.7958 6.71294 59.1462 6.99124 55.0446C2.59697 49.3527 0.00434376 42.3717 0.00434376 34.8214C0.00434376 15.5859 16.7905 0 37.5022 0C58.2139 0 75 15.5859 75 34.8214Z" fill="white"/>
</g>
<defs>
<clipPath id="clip0_5_57">
<rect width="75" height="75" fill="white"/>
</clipPath>
</defs>
</svg>
