<svg width="75" height="75" viewBox="0 0 75 75" fill="none" xmlns="http://www.w3.org/2000/svg">
<g clip-path="url(#clip0_5_71)">
<path d="M0 37.5C0 27.5544 3.95088 18.0161 10.9835 10.9835C18.0161 3.95088 27.5544 0 37.5 0C47.4456 0 56.9839 3.95088 64.0165 10.9835C71.0491 18.0161 75 27.5544 75 37.5C75 47.4456 71.0491 56.9839 64.0165 64.0165C56.9839 71.0491 47.4456 75 37.5 75C27.5544 75 18.0161 71.0491 10.9835 64.0165C3.95088 56.9839 0 47.4456 0 37.5ZM46.875 51.5625C46.875 47.6221 44.458 44.2529 41.0156 42.876V12.8906C41.0156 10.9424 39.4482 9.375 37.5 9.375C35.5518 9.375 33.9844 10.9424 33.9844 12.8906V42.876C30.542 44.2676 28.125 47.6367 28.125 51.5625C28.125 56.7334 32.3291 60.9375 37.5 60.9375C42.6709 60.9375 46.875 56.7334 46.875 51.5625ZM21.0938 25.7812C22.337 25.7812 23.5292 25.2874 24.4083 24.4083C25.2874 23.5292 25.7812 22.337 25.7812 21.0938C25.7812 19.8505 25.2874 18.6583 24.4083 17.7792C23.5292 16.9001 22.337 16.4062 21.0938 16.4062C19.8505 16.4062 18.6583 16.9001 17.7792 17.7792C16.9001 18.6583 16.4062 19.8505 16.4062 21.0938C16.4062 22.337 16.9001 23.5292 17.7792 24.4083C18.6583 25.2874 19.8505 25.7812 21.0938 25.7812ZM18.75 37.5C18.75 36.2568 18.2561 35.0645 17.3771 34.1854C16.498 33.3064 15.3057 32.8125 14.0625 32.8125C12.8193 32.8125 11.627 33.3064 10.7479 34.1854C9.86886 35.0645 9.375 36.2568 9.375 37.5C9.375 38.7432 9.86886 39.9355 10.7479 40.8146C11.627 41.6936 12.8193 42.1875 14.0625 42.1875C15.3057 42.1875 16.498 41.6936 17.3771 40.8146C18.2561 39.9355 18.75 38.7432 18.75 37.5ZM60.9375 42.1875C62.1807 42.1875 63.373 41.6936 64.2521 40.8146C65.1311 39.9355 65.625 38.7432 65.625 37.5C65.625 36.2568 65.1311 35.0645 64.2521 34.1854C63.373 33.3064 62.1807 32.8125 60.9375 32.8125C59.6943 32.8125 58.502 33.3064 57.6229 34.1854C56.7439 35.0645 56.25 36.2568 56.25 37.5C56.25 38.7432 56.7439 39.9355 57.6229 40.8146C58.502 41.6936 59.6943 42.1875 60.9375 42.1875ZM58.5938 21.0938C58.5938 19.8505 58.0999 18.6583 57.2208 17.7792C56.3417 16.9001 55.1495 16.4062 53.9062 16.4062C52.663 16.4062 51.4708 16.9001 50.5917 17.7792C49.7126 18.6583 49.2188 19.8505 49.2188 21.0938C49.2188 22.337 49.7126 23.5292 50.5917 24.4083C51.4708 25.2874 52.663 25.7812 53.9062 25.7812C55.1495 25.7812 56.3417 25.2874 57.2208 24.4083C58.0999 23.5292 58.5938 22.337 58.5938 21.0938Z" fill="black"/>
</g>
<defs>
<clipPath id="clip0_5_71">
<rect width="75" height="75" fill="white"/>
</clipPath>
</defs>
</svg>
