<svg width="75" height="75" viewBox="0 0 75 75" fill="none" xmlns="http://www.w3.org/2000/svg">
<g clip-path="url(#clip0_5_59)">
<path d="M74.974 37.4268C74.974 40.0635 73.0208 42.1289 70.8073 42.1289H66.6406L66.7318 65.5957C66.7318 65.9912 66.7057 66.3867 66.6667 66.7822V69.1406C66.6667 72.3779 64.3359 75 61.4583 75H59.375C59.2318 75 59.0885 75 58.9453 74.9854C58.763 75 58.5807 75 58.3984 75H54.1667H51.0417C48.1641 75 45.8333 72.3779 45.8333 69.1406V65.625V56.25C45.8333 53.6572 43.9714 51.5625 41.6667 51.5625H33.3333C31.0286 51.5625 29.1667 53.6572 29.1667 56.25V65.625V69.1406C29.1667 72.3779 26.8359 75 23.9583 75H20.8333H16.6797C16.4844 75 16.2891 74.9854 16.0938 74.9707C15.9375 74.9854 15.7813 75 15.625 75H13.5417C10.6641 75 8.33333 72.3779 8.33333 69.1406V52.7344C8.33333 52.6025 8.33333 52.4561 8.34635 52.3242V42.1289H4.16667C1.82292 42.1289 0 40.0781 0 37.4268C0 36.1084 0.390625 34.9365 1.30208 33.9111L34.6875 1.17188C35.599 0.146484 36.6406 0 37.5521 0C38.4635 0 39.5052 0.292969 40.2865 1.02539L73.5417 33.9111C74.5833 34.9365 75.1042 36.1084 74.974 37.4268Z" fill="white"/>
</g>
<defs>
<clipPath id="clip0_5_59">
<rect width="75" height="75" fill="white"/>
</clipPath>
</defs>
</svg>
