<svg width="75" height="75" viewBox="0 0 75 75" fill="none" xmlns="http://www.w3.org/2000/svg">
<g clip-path="url(#clip0_5_70)">
<path d="M30 0H67.5C71.6367 0 75 4.2041 75 9.375V42.1875C75 47.3584 71.6367 51.5625 67.5 51.5625H30C25.8633 51.5625 22.5 47.3584 22.5 42.1875V9.375C22.5 4.2041 25.8633 0 30 0ZM55.7812 15.6299C55.2539 14.6484 54.375 14.0625 53.4375 14.0625C52.5 14.0625 51.6211 14.6484 51.0938 15.6299L44.5312 27.9346L42.5039 24.7559C41.9648 23.9209 41.1562 23.4375 40.3125 23.4375C39.4688 23.4375 38.6484 23.9209 38.1211 24.7559L30.6211 36.4746C29.9414 37.5293 29.8125 38.9795 30.2812 40.1953C30.75 41.4111 31.7344 42.1875 32.8125 42.1875H42.1875H47.8125H64.6875C65.7305 42.1875 66.6797 41.4697 67.1719 40.3271C67.6641 39.1846 67.6055 37.793 67.0312 36.7236L55.7812 15.6299ZM39.375 14.0625C39.375 12.8193 38.9799 11.627 38.2766 10.7479C37.5734 9.86886 36.6196 9.375 35.625 9.375C34.6304 9.375 33.6766 9.86886 32.9734 10.7479C32.2701 11.627 31.875 12.8193 31.875 14.0625C31.875 15.3057 32.2701 16.498 32.9734 17.3771C33.6766 18.2561 34.6304 18.75 35.625 18.75C36.6196 18.75 37.5734 18.2561 38.2766 17.3771C38.9799 16.498 39.375 15.3057 39.375 14.0625ZM7.5 18.75H18.75V56.25V60.9375C18.75 63.5303 20.4258 65.625 22.5 65.625H37.5C39.5742 65.625 41.25 63.5303 41.25 60.9375V56.25H60V65.625C60 70.7959 56.6367 75 52.5 75H7.5C3.36328 75 0 70.7959 0 65.625V28.125C0 22.9541 3.36328 18.75 7.5 18.75ZM8.4375 28.125C7.40625 28.125 6.5625 29.1797 6.5625 30.4688V32.8125C6.5625 34.1016 7.40625 35.1562 8.4375 35.1562H10.3125C11.3438 35.1562 12.1875 34.1016 12.1875 32.8125V30.4688C12.1875 29.1797 11.3438 28.125 10.3125 28.125H8.4375ZM8.4375 43.3594C7.40625 43.3594 6.5625 44.4141 6.5625 45.7031V48.0469C6.5625 49.3359 7.40625 50.3906 8.4375 50.3906H10.3125C11.3438 50.3906 12.1875 49.3359 12.1875 48.0469V45.7031C12.1875 44.4141 11.3438 43.3594 10.3125 43.3594H8.4375ZM8.4375 58.5938C7.40625 58.5938 6.5625 59.6484 6.5625 60.9375V63.2812C6.5625 64.5703 7.40625 65.625 8.4375 65.625H10.3125C11.3438 65.625 12.1875 64.5703 12.1875 63.2812V60.9375C12.1875 59.6484 11.3438 58.5938 10.3125 58.5938H8.4375ZM47.8125 60.9375V63.2812C47.8125 64.5703 48.6562 65.625 49.6875 65.625H51.5625C52.5938 65.625 53.4375 64.5703 53.4375 63.2812V60.9375C53.4375 59.6484 52.5938 58.5938 51.5625 58.5938H49.6875C48.6562 58.5938 47.8125 59.6484 47.8125 60.9375Z" fill="black"/>
</g>
<defs>
<clipPath id="clip0_5_70">
<rect width="75" height="75" fill="white"/>
</clipPath>
</defs>
</svg>
