<svg width="75" height="75" viewBox="0 0 75 75" fill="none" xmlns="http://www.w3.org/2000/svg">
<path d="M0 6.25C0 2.79297 2.39397 0 5.35714 0H69.6429C72.606 0 75 2.79297 75 6.25C75 9.70703 72.606 12.5 69.6429 12.5H5.35714C2.39397 12.5 0 9.70703 0 6.25ZM0 37.5C0 34.043 2.39397 31.25 5.35714 31.25H69.6429C72.606 31.25 75 34.043 75 37.5C75 40.957 72.606 43.75 69.6429 43.75H5.35714C2.39397 43.75 0 40.957 0 37.5ZM75 68.75C75 72.207 72.606 75 69.6429 75H5.35714C2.39397 75 0 72.207 0 68.75C0 65.293 2.39397 62.5 5.35714 62.5H69.6429C72.606 62.5 75 65.293 75 68.75Z" fill="white"/>
</svg>
