<svg width="76" height="75" viewBox="0 0 76 75" fill="none" xmlns="http://www.w3.org/2000/svg">
<g clip-path="url(#clip0_5_58)">
<path d="M12.8428 0C5.92524 0 0.301025 4.2041 0.301025 9.375V65.625C0.301025 70.7959 5.92524 75 12.8428 75H63.0101C69.9276 75 75.5519 70.7959 75.5519 65.625V23.4375H50.4683C46.9997 23.4375 44.1973 21.3428 44.1973 18.75V0H12.8428ZM50.4683 0V18.75H75.5519L50.4683 0ZM22.2492 37.5H53.6037C55.3282 37.5 56.7392 38.5547 56.7392 39.8438C56.7392 41.1328 55.3282 42.1875 53.6037 42.1875H22.2492C20.5247 42.1875 19.1137 41.1328 19.1137 39.8438C19.1137 38.5547 20.5247 37.5 22.2492 37.5ZM22.2492 46.875H53.6037C55.3282 46.875 56.7392 47.9297 56.7392 49.2188C56.7392 50.5078 55.3282 51.5625 53.6037 51.5625H22.2492C20.5247 51.5625 19.1137 50.5078 19.1137 49.2188C19.1137 47.9297 20.5247 46.875 22.2492 46.875ZM22.2492 56.25H53.6037C55.3282 56.25 56.7392 57.3047 56.7392 58.5938C56.7392 59.8828 55.3282 60.9375 53.6037 60.9375H22.2492C20.5247 60.9375 19.1137 59.8828 19.1137 58.5938C19.1137 57.3047 20.5247 56.25 22.2492 56.25Z" fill="white"/>
</g>
<defs>
<clipPath id="clip0_5_58">
<rect width="75.2508" height="75" fill="white" transform="translate(0.301025)"/>
</clipPath>
</defs>
</svg>
