<svg width="76" height="75" viewBox="0 0 76 75" fill="none" xmlns="http://www.w3.org/2000/svg">
<g clip-path="url(#clip0_5_67)">
<path d="M12.6087 0C5.69111 0 0.0668945 4.2041 0.0668945 9.375V65.625C0.0668945 70.7959 5.69111 75 12.6087 75H62.7759C69.6935 75 75.3177 70.7959 75.3177 65.625V23.4375H50.2341C46.7655 23.4375 43.9632 21.3428 43.9632 18.75V0H12.6087ZM50.2341 0V18.75H75.3177L50.2341 0ZM22.0151 37.5H53.3696C55.0941 37.5 56.505 38.5547 56.505 39.8438C56.505 41.1328 55.0941 42.1875 53.3696 42.1875H22.0151C20.2906 42.1875 18.8796 41.1328 18.8796 39.8438C18.8796 38.5547 20.2906 37.5 22.0151 37.5ZM22.0151 46.875H53.3696C55.0941 46.875 56.505 47.9297 56.505 49.2188C56.505 50.5078 55.0941 51.5625 53.3696 51.5625H22.0151C20.2906 51.5625 18.8796 50.5078 18.8796 49.2188C18.8796 47.9297 20.2906 46.875 22.0151 46.875ZM22.0151 56.25H53.3696C55.0941 56.25 56.505 57.3047 56.505 58.5938C56.505 59.8828 55.0941 60.9375 53.3696 60.9375H22.0151C20.2906 60.9375 18.8796 59.8828 18.8796 58.5938C18.8796 57.3047 20.2906 56.25 22.0151 56.25Z" fill="black"/>
</g>
<defs>
<clipPath id="clip0_5_67">
<rect width="75.2508" height="75" fill="white" transform="translate(0.0668945)"/>
</clipPath>
</defs>
</svg>
