<svg width="75" height="75" viewBox="0 0 75 75" fill="none" xmlns="http://www.w3.org/2000/svg">
<g clip-path="url(#clip0_5_64)">
<path d="M37.4967 4.5C26.9759 4.5 18.5514 9.89062 12.4186 16.3066C6.32487 22.6641 2.24935 30.2812 0.322266 35.5107C-0.107422 36.668 -0.107422 37.957 0.322266 39.1143C2.24935 44.3438 6.32487 51.9609 12.4186 58.3184C18.5514 64.7344 26.9759 70.125 37.4967 70.125C48.0176 70.125 56.4421 64.7344 62.5749 58.3184C68.6686 51.9463 72.7441 44.3438 74.6842 39.1143C75.1139 37.957 75.1139 36.668 74.6842 35.5107C72.7441 30.2812 68.6686 22.6641 62.5749 16.3066C56.4421 9.89062 48.0176 4.5 37.4967 4.5ZM18.7467 37.3125C18.7467 31.7181 20.7222 26.3528 24.2385 22.397C27.7548 18.4411 32.5239 16.2188 37.4967 16.2188C42.4696 16.2188 47.2387 18.4411 50.755 22.397C54.2713 26.3528 56.2467 31.7181 56.2467 37.3125C56.2467 42.9069 54.2713 48.2722 50.755 52.228C47.2387 56.1839 42.4696 58.4062 37.4967 58.4062C32.5239 58.4062 27.7548 56.1839 24.2385 52.228C20.7222 48.2722 18.7467 42.9069 18.7467 37.3125ZM37.4967 27.9375C37.4967 33.1084 33.7598 37.3125 29.1634 37.3125C28.2389 37.3125 27.3535 37.1367 26.5202 36.8291C25.804 36.5654 24.9707 37.0635 24.9967 37.9131C25.0358 38.9238 25.166 39.9346 25.4134 40.9453C27.1973 48.4453 34.0592 52.8984 40.7259 50.8916C47.3926 48.8848 51.3509 41.165 49.5671 33.665C48.1217 27.5859 43.3431 23.499 38.0306 23.25C37.2754 23.2207 36.8327 24.1436 37.0671 24.9639C37.3405 25.9014 37.4967 26.8975 37.4967 27.9375Z" fill="white"/>
</g>
<defs>
<clipPath id="clip0_5_64">
<rect width="75" height="75" fill="white"/>
</clipPath>
</defs>
</svg>
