<svg width="75" height="75" viewBox="0 0 75 75" fill="none" xmlns="http://www.w3.org/2000/svg">
<g clip-path="url(#clip0_5_69)">
<path d="M11.5137 0.732413C10.1221 -0.351572 8.14453 -0.219736 6.88477 1.02538L1.02539 6.88476C-0.219726 8.12987 -0.351562 10.1074 0.717774 11.5137L12.4365 26.748C13.0957 27.6123 14.1357 28.125 15.2197 28.125H23.1445L39.1113 44.0918C36.958 48.3398 37.6465 53.6719 41.2061 57.2168L57.6123 73.623C59.4434 75.4541 62.417 75.4541 64.248 73.623L73.623 64.248C75.4541 62.417 75.4541 59.4433 73.623 57.6123L57.2168 41.206C53.6719 37.6611 48.3398 36.958 44.0918 39.1113L28.125 23.1445V15.2344C28.125 14.1357 27.6123 13.1103 26.748 12.4512L11.5137 0.732413ZM2.91504 58.0225C1.05469 59.8828 6.71949e-07 62.417 6.71949e-07 65.0537C6.71949e-07 70.5469 4.45313 75 9.94629 75C12.583 75 15.1172 73.9453 16.9775 72.085L34.2334 54.8291C33.0908 51.7676 32.915 48.4424 33.7061 45.293L24.668 36.2549L2.91504 58.0225ZM75 21.0937C75 19.5557 74.8389 18.0615 74.5312 16.626C74.1797 14.9853 72.1729 14.5605 70.9863 15.7471L61.626 25.1074C61.1865 25.5469 60.5859 25.7959 59.9707 25.7959H51.5625C50.2734 25.7959 49.2188 24.7412 49.2188 23.4521V15.0293C49.2188 14.4141 49.4678 13.8135 49.9072 13.374L59.2676 4.01366C60.4541 2.82714 60.0293 0.820303 58.3887 0.468741C56.9385 0.161124 55.4443 -9.11043e-06 53.9063 -9.11043e-06C42.2607 -9.11043e-06 32.8125 9.44823 32.8125 21.0937V21.2109L45.3076 33.706C50.5811 32.373 56.4111 33.7793 60.542 37.9101L62.8418 40.21C70.0195 36.8408 75 29.5459 75 21.0937ZM8.20313 63.2812C8.20313 62.3488 8.57352 61.4546 9.23283 60.7953C9.89214 60.136 10.7863 59.7656 11.7188 59.7656C12.6512 59.7656 13.5454 60.136 14.2047 60.7953C14.864 61.4546 15.2344 62.3488 15.2344 63.2812C15.2344 64.2136 14.864 65.1079 14.2047 65.7672C13.5454 66.4265 12.6512 66.7969 11.7188 66.7969C10.7863 66.7969 9.89214 66.4265 9.23283 65.7672C8.57352 65.1079 8.20313 64.2136 8.20313 63.2812Z" fill="black"/>
</g>
<defs>
<clipPath id="clip0_5_69">
<rect width="75" height="75" fill="white"/>
</clipPath>
</defs>
</svg>
