<svg width="75" height="75" viewBox="0 0 75 75" fill="none" xmlns="http://www.w3.org/2000/svg">
<g clip-path="url(#clip0_5_72)">
<path d="M31.7187 0.878906C31.4258 0.351562 30.7422 0 29.9805 0H26.2695C25.5078 0 24.8047 0.351562 24.5312 0.878906L20.4883 8.45215C19.8633 9.62402 17.6367 9.62402 17.0117 8.45215L12.9688 0.878906C12.6758 0.351562 11.9922 0 11.2305 0H9.375C4.19922 0 0 3.14941 0 7.03125V32.8125V36.0938V37.5H1.875H73.125H75V36.0938V32.8125V7.03125C75 3.14941 70.8008 0 65.625 0H45.0195C44.2578 0 43.5547 0.351562 43.2812 0.878906L39.2383 8.45215C38.6133 9.62402 36.3867 9.62402 35.7617 8.45215L31.7187 0.878906ZM0 42.1875V46.875C0 52.0459 5.60547 56.25 12.5 56.25H25V65.625C25 70.7959 30.6055 75 37.5 75C44.3945 75 50 70.7959 50 65.625V56.25H62.5C69.3945 56.25 75 52.0459 75 46.875V42.1875H0ZM37.5 63.2812C38.3288 63.2812 39.1237 63.5282 39.7097 63.9677C40.2958 64.4073 40.625 65.0034 40.625 65.625C40.625 66.2466 40.2958 66.8427 39.7097 67.2823C39.1237 67.7218 38.3288 67.9688 37.5 67.9688C36.6712 67.9688 35.8763 67.7218 35.2903 67.2823C34.7042 66.8427 34.375 66.2466 34.375 65.625C34.375 65.0034 34.7042 64.4073 35.2903 63.9677C35.8763 63.5282 36.6712 63.2812 37.5 63.2812Z" fill="black"/>
</g>
<defs>
<clipPath id="clip0_5_72">
<rect width="75" height="75" fill="white"/>
</clipPath>
</defs>
</svg>
