<svg width="75" height="75" viewBox="0 0 75 75" fill="none" xmlns="http://www.w3.org/2000/svg">
<g clip-path="url(#clip0_5_65)">
<path d="M37.5 37.5C43.1832 37.5 48.6337 35.5246 52.6523 32.0083C56.6709 28.4919 58.9286 23.7228 58.9286 18.75C58.9286 13.7772 56.6709 9.00805 52.6523 5.49175C48.6337 1.97544 43.1832 0 37.5 0C31.8168 0 26.3663 1.97544 22.3477 5.49175C18.3291 9.00805 16.0714 13.7772 16.0714 18.75C16.0714 23.7228 18.3291 28.4919 22.3477 32.0083C26.3663 35.5246 31.8168 37.5 37.5 37.5ZM29.8493 44.5312C13.3594 44.5312 0 56.2207 0 70.6494C0 73.0518 2.22656 75 4.9721 75H70.0279C72.7734 75 75 73.0518 75 70.6494C75 56.2207 61.6406 44.5312 45.1507 44.5312H29.8493Z" fill="black"/>
</g>
<defs>
<clipPath id="clip0_5_65">
<rect width="75" height="75" fill="white"/>
</clipPath>
</defs>
</svg>
